<svg width="24" height="24" viewBox="0 0 24 24" fill="none" xmlns="http://www.w3.org/2000/svg">
<path d="M20 16.0006C19.3793 16.0038 18.7748 16.1995 18.27 16.5606L15.82 15.1106C15.9362 14.7519 15.9969 14.3776 16 14.0006C15.9971 13.1161 15.7011 12.2574 15.1583 11.559C14.6155 10.8605 13.8565 10.3618 13 10.1406V7.82061C13.6672 7.58472 14.2296 7.12055 14.5876 6.51013C14.9457 5.89972 15.0765 5.18238 14.9568 4.48488C14.8371 3.78739 14.4747 3.15465 13.9337 2.69851C13.3926 2.24237 12.7077 1.99219 12 1.99219C11.2923 1.99219 10.6074 2.24237 10.0663 2.69851C9.52527 3.15465 9.16288 3.78739 9.04321 4.48488C8.92353 5.18238 9.05429 5.89972 9.41237 6.51013C9.77045 7.12055 10.3328 7.58472 11 7.82061V10.1406C10.1435 10.3618 9.38451 10.8605 8.84169 11.559C8.29887 12.2574 8.00287 13.1161 8 14.0006C8.0031 14.3776 8.0638 14.7519 8.18 15.1106L5.73 16.5606C5.22516 16.1995 4.62072 16.0038 4 16.0006C3.40666 16.0006 2.82664 16.1766 2.33329 16.5062C1.83994 16.8358 1.45543 17.3044 1.22836 17.8526C1.0013 18.4007 0.94189 19.0039 1.05765 19.5859C1.1734 20.1678 1.45912 20.7024 1.87868 21.1219C2.29824 21.5415 2.83279 21.8272 3.41473 21.943C3.99667 22.0587 4.59987 21.9993 5.14805 21.7723C5.69623 21.5452 6.16477 21.1607 6.49441 20.6673C6.82405 20.174 7 19.594 7 19.0006C6.9963 18.7298 6.95594 18.4606 6.88 18.2006L9.18 16.8306C9.92945 17.5756 10.9433 17.9938 12 17.9938C13.0567 17.9938 14.0706 17.5756 14.82 16.8306L17.12 18.2006C16.9524 18.8062 16.9793 19.4491 17.1967 20.0387C17.4141 20.6282 17.8112 21.1346 18.3318 21.4864C18.8525 21.8382 19.4705 22.0176 20.0986 21.9993C20.7267 21.9811 21.3332 21.766 21.8325 21.3846C22.3318 21.0032 22.6988 20.4746 22.8816 19.8734C23.0644 19.2722 23.0538 18.6288 22.8514 18.034C22.6489 17.4391 22.2648 16.9229 21.7532 16.558C21.2416 16.1932 20.6284 15.9982 20 16.0006ZM4 20.0006C3.80222 20.0006 3.60888 19.942 3.44443 19.8321C3.27998 19.7222 3.15181 19.566 3.07612 19.3833C3.00043 19.2006 2.98063 18.9995 3.01922 18.8055C3.0578 18.6115 3.15304 18.4334 3.29289 18.2935C3.43275 18.1537 3.61093 18.0584 3.80491 18.0198C3.99889 17.9812 4.19996 18.001 4.38268 18.0767C4.56541 18.1524 4.72159 18.2806 4.83147 18.445C4.94135 18.6095 5 18.8028 5 19.0006C5 19.2658 4.89464 19.5202 4.70711 19.7077C4.51957 19.8953 4.26522 20.0006 4 20.0006ZM12 4.00061C12.1978 4.00061 12.3911 4.05926 12.5556 4.16915C12.72 4.27903 12.8482 4.43521 12.9239 4.61793C12.9996 4.80066 13.0194 5.00172 12.9808 5.1957C12.9422 5.38969 12.847 5.56787 12.7071 5.70772C12.5673 5.84757 12.3891 5.94281 12.1951 5.9814C12.0011 6.01999 11.8 6.00018 11.6173 5.92449C11.4346 5.84881 11.2784 5.72063 11.1685 5.55618C11.0587 5.39174 11 5.1984 11 5.00061C11 4.7354 11.1054 4.48104 11.2929 4.29351C11.4804 4.10597 11.7348 4.00061 12 4.00061ZM12 16.0006C11.6044 16.0006 11.2178 15.8833 10.8889 15.6636C10.56 15.4438 10.3036 15.1314 10.1522 14.766C10.0009 14.4005 9.96126 13.9984 10.0384 13.6104C10.1156 13.2225 10.3061 12.8661 10.5858 12.5864C10.8655 12.3067 11.2219 12.1162 11.6098 12.039C11.9978 11.9619 12.3999 12.0015 12.7654 12.1529C13.1308 12.3042 13.4432 12.5606 13.6629 12.8895C13.8827 13.2184 14 13.6051 14 14.0006C14 14.531 13.7893 15.0398 13.4142 15.4148C13.0391 15.7899 12.5304 16.0006 12 16.0006ZM20 20.0006C19.8022 20.0006 19.6089 19.942 19.4444 19.8321C19.28 19.7222 19.1518 19.566 19.0761 19.3833C19.0004 19.2006 18.9806 18.9995 19.0192 18.8055C19.0578 18.6115 19.153 18.4334 19.2929 18.2935C19.4327 18.1537 19.6109 18.0584 19.8049 18.0198C19.9989 17.9812 20.2 18.001 20.3827 18.0767C20.5654 18.1524 20.7216 18.2806 20.8315 18.445C20.9414 18.6095 21 18.8028 21 19.0006C21 19.2658 20.8946 19.5202 20.7071 19.7077C20.5196 19.8953 20.2652 20.0006 20 20.0006Z" fill="white"/>
</svg>
