<svg width="24" height="24" viewBox="0 0 24 24" fill="none" xmlns="http://www.w3.org/2000/svg">
<path d="M4.82286 11.139L11.2529 0L1.60786 5.57L4.82286 11.139ZM1.23486 6.646V17.354L4.32486 12L1.23486 6.646ZM11.9999 23.57L18.4299 12.43H5.56986L11.9999 23.57ZM11.9999 0.43L5.56986 11.57H18.4299L11.9999 0.43ZM22.7639 17.354V6.646L19.6739 12L22.7639 17.354ZM22.7649 18.216L22.3909 18.431L19.1759 12.861L12.7459 24L22.7649 18.216ZM22.7649 5.785L12.7449 0L19.1759 11.139L22.3909 5.569L22.7649 5.785ZM1.23486 18.216L11.2539 24L4.82386 12.862L1.60786 18.431L1.23486 18.216Z" fill="black"/>
</svg>
