<svg width="20" height="20" viewBox="0 0 20 20" fill="none" xmlns="http://www.w3.org/2000/svg">
<g clip-path="url(#clip0_910_140)">
<path d="M10 20C7.34784 20 4.8043 18.9464 2.92893 17.0711C1.05357 15.1957 0 12.6522 0 10C0 7.34784 1.05357 4.8043 2.92893 2.92893C4.8043 1.05357 7.34784 0 10 0C12.6522 0 15.1957 1.05357 17.0711 2.92893C18.9464 4.8043 20 7.34784 20 10C20 12.6522 18.9464 15.1957 17.0711 17.0711C15.1957 18.9464 12.6522 20 10 20ZM17.75 12C18.0887 10.6882 18.0887 9.31182 17.75 8H13.93C14.0221 9.33174 14.0221 10.6683 13.93 12H17.75ZM16.93 14H13.71C13.5429 15.2054 13.2237 16.3848 12.76 17.51C14.5167 16.862 15.9917 15.6204 16.93 14ZM8.08 12H11.92C12.0286 10.6689 12.0286 9.33112 11.92 8H8.08C7.97142 9.33112 7.97142 10.6689 8.08 12ZM8.33 14C8.74 16.4 9.46 18 10 18C10.54 18 11.26 16.4 11.67 14H8.33ZM2.25 12H6.07C5.97794 10.6683 5.97794 9.33174 6.07 8H2.25C1.91129 9.31182 1.91129 10.6882 2.25 12ZM3.07 14C4.00826 15.6204 5.48328 16.862 7.24 17.51C6.82 16.55 6.5 15.35 6.29 14H3.07ZM16.93 6C15.9917 4.3796 14.5167 3.13804 12.76 2.49C13.18 3.45 13.5 4.65 13.71 6H16.93ZM8.33 6H11.67C11.26 3.6 10.54 2 10 2C9.46 2 8.74 3.6 8.33 6ZM3.07 6H6.29C6.49 4.65 6.82 3.45 7.24 2.49C5.48328 3.13804 4.00826 4.3796 3.07 6Z" fill="black"/>
</g>
<defs>
<clipPath id="clip0_910_140">
<rect width="20" height="20" fill="white"/>
</clipPath>
</defs>
</svg>
