<svg width="24" height="24" viewBox="0 0 24 24" fill="none" xmlns="http://www.w3.org/2000/svg">
<path d="M21.5639 12.0258C21.7569 12.033 21.9493 12.0013 22.1297 11.9324C22.3101 11.8635 22.4747 11.759 22.6138 11.625C22.7529 11.491 22.8635 11.3304 22.939 11.1527C23.0146 10.975 23.0535 10.7839 23.0535 10.5908C23.0535 10.3977 23.0146 10.2066 22.939 10.0289C22.8635 9.85125 22.7529 9.69062 22.6138 9.55665C22.4747 9.42269 22.3101 9.31815 22.1297 9.24928C21.9493 9.18041 21.7569 9.14862 21.5639 9.15583C21.5329 9.15583 21.5039 9.16183 21.4719 9.16383L20.9899 7.26383C21.1493 7.14421 21.2819 6.9926 21.3793 6.81873C21.4766 6.64487 21.5365 6.45257 21.5552 6.25419C21.5739 6.0558 21.5509 5.8557 21.4877 5.66672C21.4245 5.47774 21.3225 5.30405 21.1883 5.15679C21.0541 5.00953 20.8905 4.89195 20.7082 4.81159C20.5258 4.73124 20.3287 4.68988 20.1294 4.69016C19.9302 4.69045 19.7332 4.73238 19.5511 4.81326C19.369 4.89414 19.2058 5.01218 19.0719 5.15983L14.1819 2.88683C14.2333 2.74159 14.2603 2.58887 14.2619 2.43483C14.267 2.24313 14.2336 2.05236 14.1637 1.87377C14.0939 1.69518 13.989 1.5324 13.8552 1.39502C13.7214 1.25764 13.5614 1.14845 13.3847 1.0739C13.208 0.999347 13.0182 0.960938 12.8264 0.960938C12.6347 0.960938 12.4448 0.999347 12.2682 1.0739C12.0915 1.14845 11.9315 1.25764 11.7977 1.39502C11.6639 1.5324 11.559 1.69518 11.4891 1.87377C11.4193 2.05236 11.3859 2.24313 11.3909 2.43483C11.3924 2.4838 11.3974 2.5326 11.4059 2.58083L8.29194 3.53583C8.0769 3.26864 7.77299 3.08764 7.43562 3.02583C7.09826 2.96402 6.74992 3.02552 6.45412 3.19912C6.15832 3.37272 5.93477 3.64685 5.82423 3.97153C5.71369 4.29621 5.72352 4.6498 5.85194 4.96783L2.92194 7.58383C2.70135 7.44753 2.44724 7.37518 2.18794 7.37483C1.8449 7.37318 1.51269 7.49481 1.25181 7.71757C0.990939 7.94033 0.818766 8.24939 0.766659 8.58845C0.714552 8.92751 0.785978 9.274 0.967927 9.56481C1.14987 9.85563 1.43024 10.0714 1.75794 10.1728L1.56394 12.0388C1.34526 12.0692 1.13655 12.1496 0.954123 12.274C0.771694 12.3983 0.620484 12.5631 0.512306 12.7556C0.404128 12.948 0.341913 13.1629 0.330521 13.3834C0.319129 13.6038 0.358869 13.824 0.446636 14.0265C0.534403 14.2291 0.66782 14.4087 0.836463 14.5511C1.00511 14.6936 1.20441 14.7952 1.4188 14.8479C1.63319 14.9006 1.85686 14.903 2.07233 14.8549C2.28781 14.8069 2.48926 14.7096 2.66094 14.5708L3.62694 14.9958L3.62394 15.0258C3.62537 15.3834 3.76036 15.7276 4.00243 15.9908C4.24449 16.254 4.57617 16.4173 4.9324 16.4486C5.28863 16.4799 5.6437 16.377 5.92796 16.16C6.21222 15.943 6.40516 15.6277 6.46894 15.2758H7.57294C7.65959 15.5878 7.84957 15.8612 8.11179 16.0512C8.37402 16.2412 8.69297 16.3365 9.01645 16.3217C9.33993 16.3068 9.64878 16.1826 9.89248 15.9694C10.1362 15.7561 10.3003 15.4665 10.3579 15.1478L13.4649 15.2498C13.6922 15.4465 13.9766 15.5648 14.2763 15.5873C14.5759 15.6098 14.8749 15.5353 15.1289 15.3748C16.8826 16.3322 18.362 17.7227 19.4259 19.4138C19.3553 19.584 19.3189 19.7665 19.3189 19.9508C19.3176 20.1962 19.3791 20.4379 19.4977 20.6527C19.6163 20.8676 19.788 21.0485 19.9964 21.1781C20.2047 21.3077 20.4429 21.3818 20.688 21.3932C20.9331 21.4047 21.1771 21.3531 21.3967 21.2434C21.6162 21.1337 21.804 20.9696 21.9421 20.7668C22.0801 20.5639 22.1639 20.329 22.1854 20.0845C22.2069 19.8401 22.1654 19.5942 22.0648 19.3703C21.9642 19.1465 21.808 18.9521 21.6109 18.8058C21.108 18.0752 20.7552 17.2519 20.5729 16.3838C20.8191 16.3056 21.0394 16.1619 21.21 15.968C21.3807 15.7741 21.4953 15.5373 21.5416 15.2832C21.5878 15.0291 21.564 14.7671 21.4726 14.5255C21.3812 14.2839 21.2258 14.0718 21.0229 13.9118L21.5639 12.0258ZM22.1289 10.5908C22.1287 10.7023 22.0955 10.8112 22.0335 10.9038C21.9714 10.9964 21.8833 11.0685 21.7803 11.1111C21.6773 11.1537 21.564 11.1647 21.4547 11.1429C21.3454 11.1211 21.2449 11.0675 21.1661 10.9886C21.0873 10.9098 21.0336 10.8094 21.0118 10.7001C20.99 10.5908 21.0011 10.4775 21.0437 10.3745C21.0862 10.2714 21.1584 10.1833 21.251 10.1213C21.3436 10.0592 21.4525 10.026 21.5639 10.0258C21.7138 10.0258 21.8575 10.0854 21.9635 10.1913C22.0694 10.2973 22.1289 10.441 22.1289 10.5908ZM20.9849 9.27883C20.7504 9.38317 20.5483 9.54872 20.3998 9.7581C20.2513 9.96748 20.1619 10.213 20.1409 10.4688H19.0199C19.0033 10.2735 18.9467 10.0837 18.8537 9.91111C18.7606 9.73856 18.6331 9.587 18.4789 9.46583L19.8859 7.53283C20.1014 7.57615 20.3245 7.56236 20.5329 7.49283L20.9849 9.27883ZM18.7109 14.8458L15.8129 14.1038C15.8014 13.7804 15.6796 13.4706 15.4679 13.2258L16.6379 11.6508C16.8177 11.8195 17.0395 11.937 17.28 11.991C17.5206 12.045 17.7713 12.0335 18.0059 11.9578L19.2579 13.8918C19.1083 14.0069 18.983 14.1504 18.8891 14.3141C18.7952 14.4779 18.7346 14.6586 18.7109 14.8458ZM8.25094 5.38383L12.3319 7.51983C12.2455 7.77349 12.2396 8.04766 12.3149 8.30483L9.69494 9.65183C9.56143 9.49675 9.3962 9.37214 9.2104 9.2864C9.0246 9.20066 8.82256 9.15579 8.61794 9.15483C8.60594 9.1555 8.59427 9.15683 8.58294 9.15883L7.63994 5.78883C7.87533 5.70921 8.08592 5.56962 8.25094 5.38383ZM19.3999 7.35283L18.0329 9.22883C17.8024 9.14886 17.5547 9.13191 17.3154 9.17973C17.0762 9.22755 16.854 9.3384 16.6719 9.50083L15.0809 8.30083C15.1357 8.12967 15.1477 7.9477 15.1159 7.77083L18.8229 6.71083C18.9454 6.97806 19.1468 7.20139 19.3999 7.35083M17.5959 11.1528C17.4844 11.1526 17.3755 11.1194 17.2829 11.0573C17.1903 10.9952 17.1181 10.907 17.0756 10.804C17.033 10.7009 17.022 10.5875 17.0439 10.4782C17.0658 10.3688 17.1196 10.2684 17.1985 10.1897C17.2774 10.1109 17.3779 10.0573 17.4873 10.0356C17.5967 10.0139 17.71 10.0251 17.813 10.0679C17.916 10.1106 18.004 10.1829 18.066 10.2756C18.1279 10.3683 18.1609 10.4773 18.1609 10.5888C18.1607 10.7385 18.101 10.882 17.9951 10.9877C17.8892 11.0934 17.7456 11.1528 17.5959 11.1528ZM13.6969 8.50283C13.5855 8.50263 13.4766 8.46941 13.384 8.40736C13.2914 8.34531 13.2192 8.25722 13.1767 8.1542C13.1341 8.05118 13.123 7.93787 13.1448 7.82855C13.1666 7.71924 13.2203 7.61884 13.2991 7.54002C13.3779 7.4612 13.4784 7.40751 13.5877 7.38572C13.697 7.36392 13.8103 7.37501 13.9133 7.41757C14.0163 7.46013 14.1044 7.53227 14.1665 7.62486C14.2285 7.71746 14.2617 7.82637 14.2619 7.93783C14.2617 8.0875 14.202 8.23096 14.0961 8.3367C13.9902 8.44244 13.8466 8.50283 13.6969 8.50283ZM8.61694 10.0228C8.72844 10.0228 8.83745 10.0559 8.93018 10.1178C9.0229 10.1797 9.09519 10.2678 9.13791 10.3708C9.18063 10.4738 9.19185 10.5871 9.17017 10.6965C9.14849 10.8059 9.09488 10.9064 9.0161 10.9853C8.93732 11.0642 8.83692 11.118 8.72758 11.1399C8.61824 11.1617 8.50487 11.1507 8.4018 11.1082C8.29872 11.0656 8.21057 10.9935 8.14848 10.9009C8.08638 10.8083 8.05314 10.6993 8.05294 10.5878C8.05294 10.438 8.11247 10.2943 8.21842 10.1883C8.32438 10.0824 8.46809 10.0228 8.61794 10.0228M10.0539 10.5878C10.0535 10.4129 10.0202 10.2395 9.95594 10.0768L12.5239 8.75683C12.6556 8.94661 12.8312 9.10168 13.0358 9.20878C13.2405 9.31588 13.468 9.37183 13.6989 9.37183L13.7229 9.36983L13.2889 13.0298L9.38294 13.5238C9.30468 13.4988 9.22437 13.4808 9.14294 13.4698L8.84594 11.9998C9.18205 11.946 9.48807 11.7744 9.70935 11.5158C9.93064 11.2571 10.0528 10.9282 10.0539 10.5878ZM8.94994 14.3238C9.0614 14.324 9.17031 14.3572 9.2629 14.4193C9.3555 14.4813 9.42763 14.5694 9.4702 14.6725C9.51276 14.7755 9.52385 14.8888 9.50205 14.9981C9.48026 15.1074 9.42656 15.2078 9.34775 15.2866C9.26893 15.3655 9.16853 15.4191 9.05921 15.4409C8.9499 15.4627 8.83658 15.4517 8.73357 15.4091C8.63055 15.3665 8.54246 15.2944 8.48041 15.2018C8.41836 15.1092 8.38514 15.0003 8.38494 14.8888C8.38494 14.739 8.44447 14.5953 8.55042 14.4893C8.65638 14.3834 8.80009 14.3238 8.94994 14.3238ZM10.0259 13.9488L13.0789 13.5638C12.9933 13.7474 12.9485 13.9473 12.9477 14.1498C12.9468 14.3523 12.9899 14.5526 13.0739 14.7368L10.3609 14.6488C10.3175 14.3886 10.2013 14.1459 10.0259 13.9488ZM14.2389 9.26683C14.4918 9.16322 14.71 8.9898 14.8679 8.76683L16.3539 9.88683C16.2335 10.0905 16.1675 10.3218 16.1623 10.5584C16.157 10.795 16.2127 11.029 16.3239 11.2378L15.0809 12.9078C14.8904 12.7975 14.6766 12.7337 14.4568 12.7215C14.237 12.7094 14.0175 12.7492 13.8159 12.8378L14.2389 9.26683ZM20.1289 5.55883C20.2405 5.55883 20.3495 5.59191 20.4423 5.65388C20.535 5.71585 20.6073 5.80394 20.65 5.907C20.6927 6.01005 20.7039 6.12345 20.6821 6.23286C20.6603 6.34226 20.6066 6.44276 20.5277 6.52164C20.4489 6.60051 20.3484 6.65423 20.239 6.67599C20.1296 6.69775 20.0162 6.68658 19.9131 6.6439C19.81 6.60121 19.722 6.52892 19.66 6.43617C19.598 6.34342 19.5649 6.23438 19.5649 6.12283C19.5652 5.97315 19.6248 5.8297 19.7308 5.72396C19.8367 5.61822 19.9793 5.55883 20.1289 5.55883ZM18.8019 5.58483C18.7311 5.75535 18.6948 5.93819 18.6949 6.12283C18.6949 6.15783 18.7029 6.19083 18.7049 6.22583L14.9729 7.29183C14.8542 7.05552 14.6723 6.85677 14.4474 6.71766C14.2225 6.57855 13.9634 6.50453 13.6989 6.50383C13.6559 6.50383 13.6139 6.51383 13.5719 6.51683L13.0509 3.84683C13.403 3.79087 13.7215 3.60541 13.9439 3.32683L18.8019 5.58483ZM12.8259 1.86883C12.9374 1.86883 13.0464 1.90188 13.1392 1.96381C13.2319 2.02574 13.3042 2.11377 13.3469 2.21677C13.3896 2.31976 13.4009 2.43311 13.3792 2.54249C13.3575 2.65187 13.3039 2.75237 13.2251 2.83128C13.1463 2.9102 13.0459 2.96399 12.9366 2.98587C12.8272 3.00774 12.7139 2.99672 12.6108 2.95418C12.5077 2.91165 12.4196 2.83952 12.3575 2.7469C12.2954 2.65428 12.2621 2.54533 12.2619 2.43383C12.2619 2.28415 12.3213 2.1406 12.4271 2.03467C12.5328 1.92874 12.6763 1.86909 12.8259 1.86883ZM11.5419 3.06083C11.6377 3.2579 11.7773 3.4305 11.9499 3.5655C12.1225 3.70049 12.3236 3.79432 12.5379 3.83983L13.0859 6.64483C12.8789 6.74387 12.6986 6.89096 12.5599 7.07383L8.51494 4.95783C8.64288 4.64685 8.65107 4.2995 8.53794 3.98283L11.5419 3.06083ZM7.18194 3.86883C7.29344 3.86883 7.40245 3.90188 7.49518 3.96381C7.5879 4.02574 7.66019 4.11377 7.70291 4.21676C7.74563 4.31976 7.75685 4.43311 7.73517 4.54249C7.71349 4.65187 7.65988 4.75237 7.5811 4.83128C7.50232 4.9102 7.40192 4.96399 7.29258 4.98587C7.18324 5.00774 7.06987 4.99672 6.9668 4.95418C6.86372 4.91165 6.77557 4.83952 6.71348 4.7469C6.65138 4.65428 6.61814 4.54533 6.61794 4.43383C6.61794 4.28415 6.67733 4.1406 6.78307 4.03467C6.88881 3.92874 7.03226 3.86909 7.18194 3.86883ZM7.14194 5.86483L8.09194 9.25683C7.81737 9.36531 7.58278 9.55557 7.41994 9.80183L3.62094 8.83283L3.62394 8.80983C3.62235 8.48276 3.5079 8.16627 3.29994 7.91383L6.12394 5.39483C6.25309 5.53759 6.40974 5.65281 6.58449 5.73357C6.75925 5.81433 6.94851 5.85898 7.14094 5.86483M2.33494 13.4518C2.33494 13.5634 2.30186 13.6724 2.23989 13.7652C2.17791 13.8579 2.08983 13.9302 1.98677 13.9729C1.88371 14.0156 1.77031 14.0268 1.66091 14.005C1.5515 13.9832 1.45101 13.9295 1.37213 13.8506C1.29325 13.7718 1.23954 13.6713 1.21778 13.5619C1.19601 13.4525 1.20718 13.3391 1.24987 13.236C1.29256 13.1329 1.36485 13.0449 1.4576 12.9829C1.55035 12.9209 1.65939 12.8878 1.77094 12.8878C1.92044 12.8881 2.06374 12.9476 2.16945 13.0533C2.27517 13.159 2.33467 13.3023 2.33494 13.4518ZM2.06494 12.0468L2.25394 10.2388C2.53137 10.2262 2.7991 10.133 3.02445 9.97067C3.2498 9.80836 3.42302 9.58395 3.52294 9.32483L7.22094 10.2678C7.17325 10.4564 7.16846 10.6532 7.20694 10.8438L2.86394 12.5338C2.65935 12.2867 2.37758 12.1155 2.06394 12.0478M2.18594 8.24583C2.29744 8.24583 2.40645 8.27888 2.49918 8.34081C2.5919 8.40274 2.66419 8.49077 2.70691 8.59377C2.74963 8.69676 2.76085 8.81011 2.73917 8.91949C2.71749 9.02887 2.66388 9.12937 2.5851 9.20828C2.50632 9.2872 2.40592 9.34099 2.29658 9.36287C2.18724 9.38474 2.07387 9.37372 1.9708 9.33118C1.86772 9.28865 1.77957 9.21652 1.71748 9.1239C1.65538 9.03128 1.62214 8.92234 1.62194 8.81083C1.62194 8.66115 1.68133 8.5176 1.78707 8.41167C1.89281 8.30574 2.03626 8.24609 2.18594 8.24583ZM3.00294 14.1758C3.11249 13.9975 3.17973 13.7964 3.1995 13.5881C3.21926 13.3797 3.19102 13.1696 3.11694 12.9738L7.38294 11.3138C7.47933 11.4789 7.60784 11.623 7.76088 11.7376C7.91392 11.8521 8.08838 11.9349 8.27394 11.9808L6.40894 14.5638C6.31551 14.2863 6.13907 14.0442 5.90351 13.8702C5.66795 13.6963 5.38463 13.5989 5.0919 13.5913C4.79917 13.5836 4.51116 13.6661 4.26685 13.8275C4.02254 13.989 3.83372 14.2216 3.72594 14.4938L3.00294 14.1758ZM5.05694 15.5908C4.94548 15.5906 4.83657 15.5574 4.74397 15.4954C4.65138 15.4333 4.57924 15.3452 4.53668 15.2422C4.49412 15.1392 4.48303 15.0259 4.50483 14.9166C4.52662 14.8072 4.58031 14.7068 4.65913 14.628C4.73795 14.5492 4.83835 14.4955 4.94766 14.4737C5.05697 14.4519 5.17029 14.463 5.27331 14.5056C5.37633 14.5481 5.46442 14.6203 5.52647 14.7129C5.58852 14.8055 5.62174 14.9144 5.62194 15.0258C5.62194 15.1757 5.56241 15.3194 5.45645 15.4253C5.3505 15.5313 5.20679 15.5908 5.05694 15.5908ZM8.46394 12.2848L8.64294 13.4868C8.34229 13.5527 8.07091 13.7138 7.86913 13.9462C7.66735 14.1786 7.54594 14.4699 7.52294 14.7768H6.82294L8.46394 12.2848ZM14.3799 14.7198C14.2685 14.7196 14.1596 14.6864 14.067 14.6244C13.9744 14.5623 13.9022 14.4742 13.8597 14.3712C13.8171 14.2682 13.806 14.1549 13.8278 14.0456C13.8496 13.9362 13.9033 13.8358 13.9821 13.757C14.0609 13.6782 14.1614 13.6245 14.2707 13.6027C14.38 13.5809 14.4933 13.592 14.5963 13.6346C14.6993 13.6771 14.7874 13.7493 14.8495 13.8419C14.9115 13.9345 14.9447 14.0434 14.9449 14.1548C14.9449 14.3047 14.8854 14.4484 14.7795 14.5543C14.6735 14.6603 14.5298 14.7198 14.3799 14.7198ZM20.7529 20.5148C20.6414 20.5148 20.5323 20.4818 20.4396 20.4198C20.3468 20.3578 20.2746 20.2697 20.2319 20.1667C20.1892 20.0636 20.178 19.9502 20.1998 19.8408C20.2215 19.7314 20.2753 19.6309 20.3541 19.552C20.433 19.4731 20.5335 19.4194 20.6429 19.3977C20.7523 19.3759 20.8657 19.3871 20.9688 19.4298C21.0718 19.4724 21.1599 19.5447 21.2219 19.6375C21.2839 19.7302 21.3169 19.8393 21.3169 19.9508C21.3167 20.1003 21.2572 20.2436 21.1515 20.3493C21.0457 20.4551 20.9024 20.5146 20.7529 20.5148ZM20.7529 18.5148C20.5623 18.5149 20.3736 18.553 20.1979 18.627C20.0222 18.701 19.8631 18.8094 19.7299 18.9458C18.6661 17.3146 17.2211 15.9668 15.5199 15.0188C15.6035 14.9099 15.6705 14.7893 15.7189 14.6608L18.7419 15.3838C18.8191 15.6844 18.9919 15.9518 19.2344 16.1455C19.4768 16.3393 19.7757 16.4489 20.0859 16.4578C20.2094 17.1904 20.4725 17.8925 20.8609 18.5258C20.8239 18.5228 20.7899 18.5148 20.7529 18.5148ZM20.1269 15.5918C20.0154 15.5918 19.9064 15.5588 19.8137 15.4968C19.721 15.4349 19.6487 15.3469 19.606 15.2439C19.5632 15.1409 19.552 15.0275 19.5737 14.9182C19.5954 14.8088 19.649 14.7083 19.7278 14.6294C19.8066 14.5505 19.907 14.4967 20.0163 14.4748C20.1256 14.4529 20.239 14.4639 20.3421 14.5065C20.4452 14.549 20.5333 14.6211 20.5954 14.7138C20.6575 14.8064 20.6907 14.9153 20.6909 15.0268C20.6909 15.1765 20.6316 15.3201 20.5258 15.426C20.4201 15.5319 20.2766 15.5916 20.1269 15.5918ZM20.5709 13.6688C20.2902 13.567 19.983 13.5648 19.7009 13.6628L18.4519 11.7348C18.7049 11.545 18.8877 11.2767 18.9719 10.9718H20.1849C20.2459 11.1904 20.3577 11.3915 20.5111 11.5587C20.6646 11.7258 20.8554 11.8544 21.0679 11.9338L20.5709 13.6688Z" fill="black"/>
</svg>
