<svg width="24" height="24" viewBox="0 0 24 24" fill="none" xmlns="http://www.w3.org/2000/svg">
<path d="M13.69 19.457C13.5 18.997 13.5 18.415 13.5 17.25C13.5 16.085 13.5 15.503 13.69 15.043C13.8156 14.7397 13.9998 14.4641 14.2319 14.2319C14.4641 13.9998 14.7397 13.8156 15.043 13.69C15.503 13.5 16.085 13.5 17.25 13.5C18.415 13.5 18.997 13.5 19.457 13.69C19.7603 13.8156 20.0359 13.9998 20.2681 14.2319C20.5002 14.4641 20.6844 14.7397 20.81 15.043C21 15.503 21 16.085 21 17.25C21 18.415 21 18.997 20.81 19.457C20.6844 19.7603 20.5002 20.0359 20.2681 20.2681C20.0359 20.5002 19.7603 20.6844 19.457 20.81C18.997 21 18.415 21 17.25 21C16.085 21 15.503 21 15.043 20.81C14.7397 20.6844 14.4641 20.5002 14.2319 20.2681C13.9998 20.0359 13.8156 19.7603 13.69 19.457ZM13.69 8.957C13.5 8.497 13.5 7.915 13.5 6.75C13.5 5.585 13.5 5.003 13.69 4.543C13.8156 4.23968 13.9998 3.96408 14.2319 3.73193C14.4641 3.49979 14.7397 3.31564 15.043 3.19C15.503 3 16.085 3 17.25 3C18.415 3 18.997 3 19.457 3.19C19.7603 3.31564 20.0359 3.49979 20.2681 3.73193C20.5002 3.96408 20.6844 4.23968 20.81 4.543C21 5.003 21 5.585 21 6.75C21 7.915 21 8.497 20.81 8.957C20.6844 9.26032 20.5002 9.53592 20.2681 9.76807C20.0359 10.0002 19.7603 10.1844 19.457 10.31C18.997 10.5 18.415 10.5 17.25 10.5C16.085 10.5 15.503 10.5 15.043 10.31C14.7397 10.1844 14.4641 10.0002 14.2319 9.76807C13.9998 9.53592 13.8156 9.26032 13.69 8.957ZM3.19 19.457C3 18.997 3 18.415 3 17.25C3 16.085 3 15.503 3.19 15.043C3.31564 14.7397 3.49979 14.4641 3.73193 14.2319C3.96408 13.9998 4.23968 13.8156 4.543 13.69C5.003 13.5 5.585 13.5 6.75 13.5C7.915 13.5 8.497 13.5 8.957 13.69C9.26032 13.8156 9.53592 13.9998 9.76807 14.2319C10.0002 14.4641 10.1844 14.7397 10.31 15.043C10.5 15.503 10.5 16.085 10.5 17.25C10.5 18.415 10.5 18.997 10.31 19.457C10.1844 19.7603 10.0002 20.0359 9.76807 20.2681C9.53592 20.5002 9.26032 20.6844 8.957 20.81C8.497 21 7.915 21 6.75 21C5.585 21 5.003 21 4.543 20.81C4.23968 20.6844 3.96408 20.5002 3.73193 20.2681C3.49979 20.0359 3.31564 19.7603 3.19 19.457ZM3.19 8.957C3 8.497 3 7.915 3 6.75C3 5.585 3 5.003 3.19 4.543C3.31564 4.23968 3.49979 3.96408 3.73193 3.73193C3.96408 3.49979 4.23968 3.31564 4.543 3.19C5.003 3 5.585 3 6.75 3C7.915 3 8.497 3 8.957 3.19C9.26032 3.31564 9.53592 3.49979 9.76807 3.73193C10.0002 3.96408 10.1844 4.23968 10.31 4.543C10.5 5.003 10.5 5.585 10.5 6.75C10.5 7.915 10.5 8.497 10.31 8.957C10.1844 9.26032 10.0002 9.53592 9.76807 9.76807C9.53592 10.0002 9.26032 10.1844 8.957 10.31C8.497 10.5 7.915 10.5 6.75 10.5C5.585 10.5 5.003 10.5 4.543 10.31C4.23968 10.1844 3.96408 10.0002 3.73193 9.76807C3.49979 9.53592 3.31564 9.26032 3.19 8.957Z" stroke="white" stroke-width="1.5" stroke-linecap="square" stroke-linejoin="round"/>
</svg>
