<svg width="16" height="16" viewBox="0 0 16 16" fill="none" xmlns="http://www.w3.org/2000/svg">
<g clip-path="url(#clip0_1372_22696)">
<path d="M1 3.5C1 2.83696 1.26339 2.20107 1.73223 1.73223C2.20107 1.26339 2.83696 1 3.5 1H10.5C11.163 1 11.7989 1.26339 12.2678 1.73223C12.7366 2.20107 13 2.83696 13 3.5V6.232C12.674 6.372 12.369 6.575 12.103 6.841L12 6.944V5H2V10.5C2 10.8978 2.15804 11.2794 2.43934 11.5607C2.72064 11.842 3.10218 12 3.5 12H6.986C6.759 12.3 6.586 12.639 6.476 13H3.5C2.83696 13 2.20107 12.7366 1.73223 12.2678C1.26339 11.7989 1 11.163 1 10.5V3.5ZM10.354 8.146C10.438 8.23 10.485 8.336 10.497 8.446L7.947 10.997C7.85335 10.9868 7.7645 10.9503 7.69066 10.8918C7.61683 10.8333 7.56102 10.7552 7.52967 10.6664C7.49832 10.5775 7.4927 10.4816 7.51345 10.3898C7.53421 10.2979 7.58051 10.2137 7.647 10.147L9.292 8.5L7.646 6.854C7.59951 6.80751 7.56264 6.75232 7.53748 6.69158C7.51232 6.63084 7.49937 6.56574 7.49937 6.5C7.49937 6.43426 7.51232 6.36916 7.53748 6.30842C7.56264 6.24768 7.59951 6.19249 7.646 6.146C7.69249 6.09951 7.74768 6.06264 7.80842 6.03748C7.86916 6.01232 7.93426 5.99937 8 5.99937C8.06574 5.99937 8.13084 6.01232 8.19158 6.03748C8.25232 6.06264 8.30751 6.09951 8.354 6.146L10.354 8.146ZM6.354 6.146C6.40056 6.19245 6.43751 6.24762 6.46271 6.30837C6.48792 6.36911 6.50089 6.43423 6.50089 6.5C6.50089 6.56577 6.48792 6.63089 6.46271 6.69163C6.43751 6.75238 6.40056 6.80755 6.354 6.854L4.707 8.5L6.354 10.146C6.44789 10.2399 6.50063 10.3672 6.50063 10.5C6.50063 10.6328 6.44789 10.7601 6.354 10.854C6.26011 10.9479 6.13278 11.0006 6 11.0006C5.86722 11.0006 5.73989 10.9479 5.646 10.854L3.646 8.854C3.59944 8.80755 3.56249 8.75238 3.53729 8.69163C3.51208 8.63089 3.49911 8.56577 3.49911 8.5C3.49911 8.43423 3.51208 8.36911 3.53729 8.30837C3.56249 8.24762 3.59944 8.19245 3.646 8.146L5.646 6.146C5.69245 6.09944 5.74762 6.06249 5.80837 6.03729C5.86911 6.01208 5.93423 5.99911 6 5.99911C6.06577 5.99911 6.13089 6.01208 6.19163 6.03729C6.25238 6.06249 6.30755 6.09944 6.354 6.146ZM7.98 12.377L12.81 7.547C13.1609 7.19638 13.6367 6.99951 14.1327 6.9997C14.6287 6.99989 15.1044 7.19712 15.455 7.548C15.8056 7.89888 16.0025 8.37467 16.0023 8.87071C16.0021 9.36674 15.8049 9.84238 15.454 10.193L10.624 15.022C10.3425 15.3034 9.99002 15.5031 9.604 15.6L8.106 15.974C7.95705 16.0111 7.80103 16.0091 7.6531 15.9681C7.50516 15.9271 7.37035 15.8485 7.26175 15.74C7.15316 15.6315 7.07447 15.4968 7.03333 15.3489C6.9922 15.201 6.99002 15.045 7.027 14.896L7.402 13.398C7.49886 13.012 7.69862 12.6595 7.98 12.378" fill="white"/>
</g>
<defs>
<clipPath id="clip0_1372_22696">
<rect width="16" height="16" fill="white"/>
</clipPath>
</defs>
</svg>
