<svg width="24" height="24" viewBox="0 0 24 24" fill="none" xmlns="http://www.w3.org/2000/svg">
<path d="M13 21H4C3.46957 21 2.96086 20.7893 2.58579 20.4142C2.21071 20.0391 2 19.5304 2 19V5C2 4.46957 2.21071 3.96086 2.58579 3.58579C2.96086 3.21071 3.46957 3 4 3H20C20.5304 3 21.0391 3.21071 21.4142 3.58579C21.7893 3.96086 22 4.46957 22 5V12" stroke="white" stroke-width="1.5" stroke-linecap="round"/>
<path d="M2 7.001H22M5 5.011L5.01 5M8 5.011L8.01 5M11 5.011L11.01 5M18.992 14.126L21.548 14.775C21.814 14.843 22.001 15.085 21.993 15.359C21.821 21.117 18.5 22.001 18.5 22.001C18.5 22.001 15.179 21.117 15.007 15.359C15.0043 15.2257 15.0468 15.0954 15.1276 14.9893C15.2084 14.8833 15.3227 14.8077 15.452 14.775L18.008 14.126C18.331 14.044 18.669 14.044 18.992 14.126Z" stroke="white" stroke-width="1.5" stroke-linecap="round" stroke-linejoin="round"/>
</svg>
