<svg width="24" height="24" viewBox="0 0 24 24" fill="none" xmlns="http://www.w3.org/2000/svg">
<path d="M15.5 5.1421L17.7437 2.75V10.5H15.5H19.5M6.625 2.75C6.11613 2.75 5.61224 2.85023 5.1421 3.04497C4.67197 3.2397 4.24479 3.52513 3.88496 3.88496C3.52513 4.24479 3.2397 4.67196 3.04497 5.1421C2.85023 5.61224 2.75 6.11613 2.75 6.625C2.75 7.13387 2.85023 7.63776 3.04497 8.1079C3.2397 8.57803 3.52513 9.00521 3.88496 9.36504C4.24479 9.72487 4.67197 10.0103 5.1421 10.205C5.61224 10.3998 6.11613 10.5 6.625 10.5C7.65271 10.5 8.63834 10.0917 9.36504 9.36504C10.0917 8.63833 10.5 7.65271 10.5 6.625C10.5 5.59729 10.0917 4.61166 9.36504 3.88496C8.63834 3.15826 7.65271 2.75 6.625 2.75ZM6.625 13.5C6.11613 13.5 5.61224 13.6002 5.1421 13.795C4.67197 13.9897 4.24479 14.2751 3.88496 14.635C3.52513 14.9948 3.2397 15.422 3.04497 15.8921C2.85023 16.3622 2.75 16.8661 2.75 17.375C2.75 17.8839 2.85023 18.3878 3.04497 18.8579C3.2397 19.328 3.52513 19.7552 3.88496 20.115C4.24479 20.4749 4.67197 20.7603 5.1421 20.955C5.61224 21.1498 6.11613 21.25 6.625 21.25C7.65271 21.25 8.63834 20.8417 9.36504 20.115C10.0917 19.3883 10.5 18.4027 10.5 17.375C10.5 16.3473 10.0917 15.3617 9.36504 14.635C8.63834 13.9083 7.65271 13.5 6.625 13.5ZM17.375 13.5C16.8661 13.5 16.3622 13.6002 15.8921 13.795C15.422 13.9897 14.9948 14.2751 14.635 14.635C14.2751 14.9948 13.9897 15.422 13.795 15.8921C13.6002 16.3622 13.5 16.8661 13.5 17.375C13.5 17.8839 13.6002 18.3878 13.795 18.8579C13.9897 19.328 14.2751 19.7552 14.635 20.115C14.9948 20.4749 15.422 20.7603 15.8921 20.955C16.3622 21.1498 16.8661 21.25 17.375 21.25C18.4027 21.25 19.3883 20.8417 20.115 20.115C20.8417 19.3883 21.25 18.4027 21.25 17.375C21.25 16.3473 20.8417 15.3617 20.115 14.635C19.3883 13.9083 18.4027 13.5 17.375 13.5Z" stroke="white" stroke-width="1.5" stroke-linecap="round" stroke-linejoin="round"/>
</svg>
